PathFileType	4	(X/Y/Z)	D:\TRACE\spotREDO_2-26-24\spot_baseline_2-v60.trc
DataRate	CameraRate	NumFrames	NumMarkers	Units	OrigDataRate	OrigDataStartFrame	OrigNumFrames
100.00	100.00	      14	9	mm	100.00	1	      7000
Frame#	Time	front left toe			Front right toe			aft left toe			aft right toe			Arm			FL body			FR body			AL Body			AR Body			
		X1	Y1	Z1	X2	Y2	Z2	X3	Y3	Z3	X4	Y4	Z4	X5	Y5	Z5	X6	Y6	Z6	X7	Y7	Z7	X8	Y8	Z8	X9	Y9	Z9	

1	0.000	-203.29472	24.65850	-184.22299	308.24280	25.96877	-187.15504	-201.54898	24.78592	409.66489	304.21719	29.10019	409.06168	48.37014	669.82227	-343.76389	-26.25226	409.05032	-306.43823	129.72125	419.05710	-309.77237	-20.23701	463.04199	575.33850	127.90189	468.27521	575.15021	
2	0.010	-203.42946	24.79116	-184.61316	308.25848	26.00075	-187.37843	-201.58357	24.65983	409.54959	304.19052	29.10478	408.86545	48.46367	673.47510	-343.27628	-26.42923	413.16815	-306.16101	129.47267	422.60315	-309.40939	-20.30971	465.77811	575.81055	127.48511	471.10840	575.51923	
3	0.020	-203.45520	24.79551	-184.68700	308.31131	26.02848	-187.44334	-201.46759	24.40192	409.77261	304.16492	29.03770	408.68637	48.32388	677.49078	-342.67010	-26.73807	417.15009	-305.85474	128.50990	426.50299	-309.05231	-20.81507	468.90497	576.21271	127.32369	473.74728	575.76715	
4	0.030	-203.65279	24.90937	-185.19099	308.29797	25.88957	-187.51772	-201.60898	24.66714	409.48041	304.24829	29.04477	408.45160	48.49448	681.48816	-342.15555	-27.35540	421.24008	-305.72440	128.15840	430.59109	-308.91733	-21.11045	472.21469	576.30743	127.10173	476.79007	576.00897	
5	0.040	-203.67441	24.75916	-185.32922	308.22229	25.73035	-187.81393	-201.81728	24.46585	409.10645	304.31543	28.98550	408.07452	48.49283	685.77515	-341.64407	-27.67198	425.55270	-305.34628	127.71530	434.70813	-308.74875	-21.10849	475.37399	576.75690	126.89262	479.98483	576.43622	
6	0.050	-203.80956	24.57972	-185.31265	308.26636	25.64261	-188.15927	-201.94547	24.34417	408.93835	304.57001	29.08269	408.00415	48.68482	690.19269	-341.09525	-27.93230	429.82053	-304.97894	127.42423	438.64780	-308.58276	-21.57712	478.88232	577.00476	126.99794	483.26456	577.00012	
7	0.060	-203.96092	24.46361	-185.82056	308.40366	25.77738	-188.35612	-202.00150	24.27971	408.81137	304.60779	29.13118	407.99890	48.70338	694.43262	-340.49164	-28.21595	434.32565	-304.83414	127.23610	443.16513	-308.20471	-21.84926	482.47943	577.16699	126.11354	486.49957	576.89014	
8	0.070	-204.00893	24.41564	-186.00929	308.45273	25.77665	-188.52631	-201.96098	24.23071	408.73990	304.59641	29.03542	407.88403	48.66361	699.33911	-339.98300	-28.70914	439.31845	-304.76242	126.92284	447.61774	-307.90048	-22.09122	486.18552	577.63928	126.59763	489.91330	577.70050	
9	0.080	-204.10559	24.39568	-186.28687	308.63193	25.78857	-188.65344	-202.02237	24.25983	408.68073	304.72632	28.92586	407.68753	48.74318	704.02625	-339.39667	-29.06565	444.17859	-304.46216	126.44848	452.11899	-307.88516	-22.26562	490.01984	577.87238	125.92653	493.56311	577.56030	
10	0.090	-204.29196	24.39757	-186.60754	308.79681	25.86633	-188.84258	-202.09550	24.29065	408.62158	304.76349	28.84573	407.46216	48.82571	709.05664	-338.87286	-29.15142	448.97650	-304.00946	126.11185	456.96219	-307.63315	-22.34421	493.93579	578.15625	126.28294	497.11658	578.12549	
11	0.100	-204.16042	23.70680	-186.44981	308.93478	25.87455	-189.08627	-202.31267	23.96284	408.29047	304.76797	28.90042	407.21729	48.89622	713.92212	-338.46820	-29.70497	454.13351	-304.06921	125.93557	461.72513	-307.31348	-22.61199	497.87921	578.52637	125.54862	500.71317	578.11713	
12	0.110	-204.25456	23.53555	-186.60426	308.97238	25.85245	-189.31635	-202.29770	23.76493	407.91000	304.64249	28.82467	406.95038	49.32069	718.74860	-337.89633	-30.06303	459.08002	-303.80859	125.69385	466.31845	-307.05643	-22.85664	501.85831	578.71161	125.52267	504.55124	578.68030	
13	0.120	-204.22319	23.28740	-186.79211	309.14911	25.87820	-189.55196	-202.44179	23.82147	407.67715	304.52966	28.78230	406.52948	49.39898	723.68207	-337.38678	-30.22011	464.22534	-303.38696	125.22559	471.36343	-307.04657	-23.12877	505.94235	579.02618	125.09364	508.20230	578.80139	
14	0.130	-204.28041	23.30395	-187.03734	309.13690	25.86957	-189.87546	-202.52887	23.86326	407.41122	304.59262	28.75888	406.40576	49.54332	728.85107	-336.92923	-30.49416	469.42667	-303.06491	125.01276	476.07947	-306.46353	-23.22380	510.02182	579.27838	124.95223	512.13379	579.06024	
